{"title":"Tracker.2010.BDRip.XVID.AC3.HQ.Hive-CM8","uid":6340881,"size":1732468564,"categoryP":"video","categoryS":"movies","magnet":"?xt=urn:btih:75b4234bc9078d294ecb2101b096f8a69a94ea0c&amp;dn=Tracker.2010.BDRip.XVID.AC3.HQ.Hive-CM8&amp;tr=udp%3A%2F%2Ftracker.openbittorrent.com%3A80&amp;tr=udp%3A%2F%2Fopen.demonii.com%3A1337&amp;tr=udp%3A%2F%2Ftracker.coppersurfer.tk%3A6969&amp;tr=udp%3A%2F%2Fexodus.desync.com%3A6969","seeders":0,"leechers":1,"uploader":"sceneline","files":5,"time":1303657626,"description":"-\nhttp:// www. Speed. Cd       \nhttp:// www. Speed. Cd       the fast  and The Hottest Private Tracker on the net\n\nPlease Seed back to make the speed Faster!!!\n\nand don't forget to visit      ...... www. Speed. Cd..........\n-[img]http://img196.imageshack.us/img196/4310/trackertg.jpg[/img]\n\n[color=blue][size=5][b]Tracker.2010.BDRip.XVID.AC3.HQ.Hive-CM8[/b][/size][/color]\n\n\n[b]Thx Hive\n\nCM8 Doing It Right The First Time :D\n\n\nSource Bluray\n\nVideo: 720x304 @bitrate 1800 2pass\nAudio: DTS to AC3 5.1 @448\nSample: yes included[/b]\n\n\n[url]http://www.imdb.com/title/tt1414378/[/url]\n\n\nGeneral\nComplete name                    : Tracker.2010.BDRip.XVID.AC3.HQ.Hive-CM8.avi\nFormat                           : AVI\nFormat/Info                      : Audio Video Interleave\nFile size                        : 1.61 GiB\nDuration                         : 1h 42mn\nOverall bit rate                 : 2 253 Kbps\nWriting application              : Nandub v1.0rc2\nWriting library                  : Nandub build 1853/release\n\nVideo\nID                               : 0\nFormat                           : MPEG-4 Visual\nFormat profile                   : Advanced Simple@L5\nFormat settings, BVOP            : Yes\nFormat settings, QPel            : Yes\nFormat settings, GMC             : No warppoints\nFormat settings, Matrix          : Default (H.263)\nMuxing mode                      : Packed bitstream\nCodec ID                         : XVID\nCodec ID/Hint                    : XviD\nDuration                         : 1h 42mn\nBit rate                         : 1 795 Kbps\nWidth                            : 720 pixels\nHeight                           : 304 pixels\nDisplay aspect ratio             : 2.40:1\nFrame rate                       : 23.976 fps\nColor space                      : YUV\nChroma subsampling               : 4:2:0\nBit depth                        : 8 bits\nScan type                        : Progressive\nBits/(Pixel*Frame)               : 0.342\nStream size                      : 1.28 GiB (80%)\nWriting library                  : XviD 1.2.1 (UTC 2008-12-04)\n\nAudio\nID                               : 1\nFormat                           : AC-3\nFormat/Info                      : Audio Coding 3\nMode extension                   : CM (complete main)\nCodec ID                         : 2000\nDuration                         : 1h 42mn\nBit rate mode                    : Constant\nBit rate                         : 448 Kbps\nChannel(s)                       : 6 channels\nChannel positions                : Front: L C R, Side: L R, LFE\nSampling rate                    : 48.0 KHz\nBit depth                        : 16 bits\nVideo delay                      : 26ms\nStream size                      : 328 MiB (20%)\nAlignment                        : Split accross interleaves\nInterleave, duration             : 42 ms (1.00 video frame)\nInterleave, preload duration     : 500 ms\n\n\n\nRay Winstone\t ... \tArjan\nTemuera Morrison\t... \tKereama\nAndy Anderson\t... \tBryce\nGareth Reeves\t... \tMajor Pritchard Carlysle\nMark Mitchinson\t... \tSaunders\nDaniel Musgrove\t... \tPrivate Renwick\nTim McLachlan\t... \tLevin\nSteve Reinsfield\t... \tDrake\n\n\nAn ex-Boer war guerrilla in New Zealand is sent out to bring back a Maori \naccused of killing a British soldier. Gradually they grow to know and respect \none another but a posse, led by the British Commanding officer is close behind \nand his sole intention is to see the Maori hang. \n\n\n[img]http://img718.imageshack.us/img718/7797/81790127.png[/img]\n[img]http://img291.imageshack.us/img291/2670/trtrj.png[/img]\n[img]http://img855.imageshack.us/img855/8645/trtrtr.png[/img]\n[img]http://img841.imageshack.us/img841/9797/trttrrtr.png[/img]\n[img]http://img718.imageshack.us/img718/5271/trtttrrrtr.png[/img]\n[img]http://img819.imageshack.us/img819/6600/trttttrrrrtr.png[/img]\n\n\n\n\n\nGreetz\n\nViSiON,LUSi,SANTi,MAGNET,THC,T0XiCiNK,LKRG,IMAGiNE,WBZ,FLAWL3SS,NOVA\nVik,Rapeseed,D2U,SAFC,goldadvance,MEMORY100,KaN1vE,Unevano,Pinnz,Wayne,Mr Hive\nand all P2P groups \nGreat Work Guys :D\n\n&lt;a class=&quot;__cf_email__&quot; href=&quot;/cdn-cgi/l/email-protection&quot; data-cfemail=&quot;c7848aff87afb2b4afaaa6aeabe9a4a8aa&quot;&gt;[email&amp;#160;protected]&lt;/a&gt;&lt;script cf-hash='f9e31' type=&quot;text/javascript&quot;&gt;\n/* &lt;![CDATA[ */!function(){try{var t=&quot;currentScript&quot;in document?document.currentScript:function(){for(var t=document.getElementsByTagName(&quot;script&quot;),e=t.length;e--;)if(t[e].getAttribute(&quot;cf-hash&quot;))return t[e]}();if(t&amp;&amp;t.previousSibling){var e,r,n,i,c=t.previousSibling,a=c.getAttribute(&quot;data-cfemail&quot;);if(a){for(e=&quot;&quot;,r=parseInt(a.substr(0,2),16),n=2;a.length-n;n+=2)i=parseInt(a.substr(n,2),16)^r,e+=String.fromCharCode(i);e=document.createTextNode(e),c.parentNode.replaceChild(e,c)}}}catch(u){}}();/* ]]&gt; */&lt;/script&gt;","torrent":{"xt":"urn:btih:75b4234bc9078d294ecb2101b096f8a69a94ea0c","amp;dn":"Tracker.2010.BDRip.XVID.AC3.HQ.Hive-CM8","amp;tr":["udp%3A%2F%2Ftracker.openbittorrent.com%3A80","udp%3A%2F%2Fopen.demonii.com%3A1337","udp%3A%2F%2Ftracker.coppersurfer.tk%3A6969","udp%3A%2F%2Fexodus.desync.com%3A6969"],"infoHash":"75b4234bc9078d294ecb2101b096f8a69a94ea0c","infoHashBuffer":{"type":"Buffer","data":[117,180,35,75,201,7,141,41,78,203,33,1,176,150,248,166,154,148,234,12]},"announce":[],"urlList":[]}}